<?xml version="1.0" encoding="UTF-8"?>
<svg xmlns="http://www.w3.org/2000/svg" xmlns:xlink="http://www.w3.org/1999/xlink" width="30px" height="24px" viewBox="0 0 29 24" version="1.1">
<g id="surface1">
<path style="fill-rule:nonzero;fill:rgb(0%,47.450981%,41.960785%);fill-opacity:1;stroke-width:1.5;stroke-linecap:round;stroke-linejoin:round;stroke:rgb(100%,100%,100%);stroke-opacity:1;stroke-miterlimit:4;" d="M 11.961207 11.635254 C 13.640086 11.635254 15 10.27474 15 8.596842 C 15 6.918945 13.640086 5.558431 11.961207 5.558431 L 11.943966 5.558431 C 11.954741 5.433594 11.961207 5.306641 11.961207 5.177572 C 11.961207 2.871257 10.090517 1.000814 7.782328 1.000814 C 5.476293 1.000814 3.605603 2.871257 3.605603 5.177572 C 3.605603 5.181803 3.605603 5.186035 3.605603 5.188151 C 2.118534 5.490723 1 6.804687 1 8.378906 C 1 10.177409 2.456897 11.635254 4.256466 11.635254 " transform="matrix(1.8125,0,0,1.846154,0,0)"/>
<path style=" stroke:none;fill-rule:nonzero;fill:rgb(0%,47.450981%,41.960785%);fill-opacity:1;" d="M 14.796875 21.480469 L 14.796875 14.46875 Z M 14.796875 14.46875 L 17.550781 17.273438 Z M 14.796875 14.46875 L 12.042969 17.273438 Z M 14.796875 14.46875 "/>
<path style="fill:none;stroke-width:1.5;stroke-linecap:round;stroke-linejoin:round;stroke:rgb(100%,100%,100%);stroke-opacity:1;stroke-miterlimit:4;" d="M 8.163793 11.635254 L 8.163793 7.83724 M 8.163793 7.83724 L 9.68319 9.356445 M 8.163793 7.83724 L 6.644397 9.356445 " transform="matrix(1.8125,0,0,1.846154,0,0)"/>
</g>
</svg>
